<?xml version="1.0" standalone="no"?>
<!DOCTYPE svg PUBLIC "-//W3C//DTD SVG 20010904//EN"
 "http://www.w3.org/TR/2001/REC-SVG-20010904/DTD/svg10.dtd">
<svg version="1.0" xmlns="http://www.w3.org/2000/svg"
 width="395.000000pt" height="395.000000pt" viewBox="0 0 395.000000 395.000000"
 preserveAspectRatio="xMidYMid meet">
<metadata>
Created by potrace 1.14, written by Peter Selinger 2001-2017
</metadata>
<g transform="translate(0.000000,395.000000) scale(0.100000,-0.100000)"
fill="#000000" stroke="none">
<path d="M1706 3924 c-873 -118 -1559 -804 -1682 -1680 -25 -180 -15 -494 21
-664 64 -308 193 -583 390 -835 77 -99 254 -271 358 -349 73 -54 253 -166 267
-166 4 0 12 19 19 42 39 133 202 320 356 409 317 183 712 209 1060 70 205 -82
378 -230 457 -391 18 -36 34 -67 36 -69 4 -7 58 26 152 93 99 71 277 240 361
342 175 214 317 495 382 759 47 187 52 237 52 500 -1 233 -3 259 -28 378 -180
844 -848 1461 -1697 1567 -114 14 -383 11 -504 -6z m-223 -728 c170 -50 315
-141 432 -269 l64 -70 66 71 c120 130 259 216 432 269 79 24 104 27 248 27
138 1 171 -2 239 -22 255 -74 456 -231 575 -453 78 -145 111 -275 111 -440 0
-175 -42 -333 -127 -478 -47 -80 -188 -230 -266 -283 -257 -175 -568 -213
-856 -105 l-87 33 -44 -70 c-57 -90 -147 -204 -229 -289 l-65 -67 -39 37 c-64
61 -179 202 -241 297 -44 66 -63 86 -75 81 -291 -116 -551 -110 -806 17 -225
112 -386 302 -471 558 -26 80 -28 95 -28 260 -1 204 8 248 83 405 128 270 381
461 678 515 26 5 109 7 183 5 109 -2 152 -8 223 -29z"/>
<path d="M1142 2729 c-243 -47 -397 -310 -322 -550 78 -251 356 -372 595 -260
115 54 189 141 227 264 94 311 -179 609 -500 546z m259 -188 c72 -72 3 -192
-96 -167 -52 13 -84 69 -71 122 19 75 112 100 167 45z"/>
<path d="M2621 2725 c-125 -35 -227 -122 -284 -242 -30 -64 -32 -75 -32 -178
0 -103 2 -114 32 -177 129 -273 489 -337 698 -124 217 223 136 596 -154 706
-72 28 -190 34 -260 15z m274 -179 c76 -76 11 -197 -91 -172 -113 29 -91 196
26 196 30 0 47 -6 65 -24z"/>
</g>
</svg>
